# xmcd
#
# Track frame offsets:
#	150
#	10645
#	21285
#	31922
#	46272
#	55792
#	71192
#	79782
#	90750
#	102562
#	112622
#	128390
#
# Disc length: 1891 seconds
#
# Revision: 1
# Processed by: cddbd v1.4PL0 Copyright (c) Steve Scherf et al.
# Submitted via: audiograbber 1.81.02
#
DISCID=8107610c
DTITLE=Ferlin Husky - The Wings Of A Dove
DYEAR=1900
DGENRE=Country
TTITLE0=Wings Of A Dove
TTITLE1=I Believe
TTITLE2=I'll Fly Away
TTITLE3=Farther Along
TTITLE4=I Saw The Light
TTITLE5=Where No One Stands Alone
TTITLE6=(Open Up The Book) Take A Look
TTITLE7=It Is No Secret
TTITLE8=Lonesome Valley
TTITLE9=Somebody Touched Me
TTITLE10=Just A Closer Walk With Thee
TTITLE11=Peace In The Valley
EXTD=
EXTT0=
EXTT1=
EXTT2=
EXTT3=
EXTT4=
EXTT5=
EXTT6=
EXTT7=
EXTT8=
EXTT9=
EXTT10=
EXTT11=
PLAYORDER=
